<svg width="143" height="165" viewBox="0 0 143 165" fill="none" xmlns="http://www.w3.org/2000/svg">
    <path d="M71.5 0L0 41.2164V50.8313L8.27328 46.0575L71.5 9.54768L134.727 46.0575V46.1247L143 50.8985V41.2164L71.5 0Z" fill="#CAE4DB"/>
    <path d="M134.727 118.943L128.404 122.573L112.127 131.987L80.3786 150.275C80.1096 148.392 79.7733 146.51 79.5042 144.627C79.1007 141.4 79.437 141.198 84.0781 138.979C84.5489 138.778 84.9525 138.509 85.4233 138.307C89.0555 136.76 92.7549 135.214 96.4544 133.802C98.6068 132.995 100.356 131.718 101.432 129.633C102.373 127.818 103.382 126.07 104.324 124.322C104.997 123.111 104.862 122.035 103.786 121.094C103.315 120.691 102.777 120.287 102.306 119.884C98.674 116.657 95.3109 113.295 93.8311 108.454C93.4948 107.243 92.4859 106.168 91.477 105.293C87.0376 101.461 81.6566 100.52 76.0738 100.452C74.5941 100.452 73.4506 99.9817 72.3744 98.9731C69.4821 96.3509 67.8678 93.1235 66.9934 89.3582C66.5898 87.4083 65.3791 86.9377 63.8321 88.1479C62.7559 88.9548 61.7469 90.0306 61.1416 91.2408C58.9892 95.2751 58.7201 99.78 58.9219 104.15C59.1237 107.176 58.5856 109.26 56.1642 111.479C48.3617 118.741 45.4022 128.221 45.5367 138.71C45.5367 139.046 45.604 139.315 45.604 139.517C45.5367 139.853 45.5367 140.189 45.4694 140.458L41.1646 137.971C41.2319 136.693 41.2992 135.281 41.2992 134.811C41.6355 123.716 44.4605 115.648 52.6665 107.983C53.2046 107.445 54.3481 105.966 54.5499 104.285C55.0207 100.385 54.8189 97.0233 55.8951 93.3252C56.7023 90.703 58.7201 87.61 61.2761 85.3912C64.5047 82.5 68.0696 82.5673 69.4821 87.6773C70.1548 90.1651 71.8363 92.3167 73.1816 94.5355C73.4506 95.0061 74.7286 96.2836 75.4012 96.3509C76.9483 96.5526 79.9751 96.8888 81.7239 97.0233C81.7239 96.7543 81.7912 96.4854 81.7912 96.2164H81.8584C82.1275 94.401 82.4638 92.5856 82.9346 90.8374C83.0691 90.8374 83.0691 90.7702 83.0019 90.6357C84.0781 86.9377 85.9614 83.6431 89.4591 82.0966C95.4454 79.4071 101.095 74.9695 107.687 73.6247C109.772 73.2213 114.615 65.0856 115.355 63.0685C116.028 61.3875 116.499 59.6394 116.835 57.824C117.777 52.5122 119.929 50.6968 110.916 49.1504C106.746 48.478 102.575 47.8056 98.4722 46.9988C95.849 46.4609 93.2258 45.8558 91.5442 43.2335C88.921 39.2665 84.818 37.3166 80.5132 35.8374C73.6524 33.5514 66.4553 33.9548 59.46 34.5599C45.3349 35.7029 34.7074 43.2335 26.0978 53.9242C23.2055 57.4878 23.6764 60.9841 27.0395 64.346C31.8824 69.1198 37.0616 73.4902 42.3754 77.6589C48.1599 82.1638 51.0522 81.357 53.8772 74.6333C55.4915 70.868 55.6933 67.1699 54.6844 63.2029C53.2719 57.824 51.9266 51.302 58.5183 47.2677C53.6082 52.3778 56.8368 59.9083 58.5183 65.9597C59.1237 68.044 58.5856 70.7335 57.9802 73.6919C55.9624 83.5758 48.8326 87.0049 40.492 81.6259C40.0884 81.357 39.4831 80.9536 39.1468 80.6846C33.7658 77.0538 34.3039 75.9108 32.1515 82.2311C27.3086 96.4181 20.4478 109.328 11.4346 120.96L8.0715 119.01V53.6553L0 58.4291V123.716L71.5 164.933L137.283 126.944L143 123.649V58.4963L134.727 53.7225V118.943ZM85.6924 111.614C86.9031 111.614 87.8448 112.891 87.8448 114.505C87.8448 116.119 86.9031 117.396 85.6924 117.396C84.4817 117.396 83.54 116.119 83.54 114.505C83.54 112.891 84.5489 111.614 85.6924 111.614ZM75.1322 48.6125C77.15 46.0575 81.5221 45.2506 83.809 50.8313C81.1185 49.1504 77.0155 49.4866 73.2488 53.3191C73.3161 52.445 74.5941 49.3521 75.1322 48.6125Z" fill="#CAE4DB"/>
    </svg>
    