<svg width="160" height="152" viewBox="0 0 160 152" fill="none" xmlns="http://www.w3.org/2000/svg">
    <path d="M80 0L0 46.0818V56.8317L9.25682 51.4944L80 10.6747L150.743 51.4944V51.5695L160 56.9069V46.0818L80 0Z" fill="#CAE4DB"/>
    <path d="M9.25684 59.9891V132.983L41.5428 151.627V126.218C41.5428 125.917 41.5428 125.691 41.5428 125.391C41.5428 100.057 58.7018 79.5344 79.9247 79.5344C101.148 79.5344 118.307 100.057 118.307 125.391C118.307 125.691 118.307 125.917 118.307 126.218V151.627L150.593 132.983V60.0643L79.8495 19.2446L9.25684 59.9891ZM92.9445 53.2234C92.9445 49.7654 95.8043 46.9088 99.2662 46.9088C102.728 46.9088 105.588 49.7654 105.588 53.2234C105.588 55.1779 104.685 56.9821 103.255 58.1097C104.685 59.2373 105.588 61.0415 105.588 62.9961C105.588 66.4541 102.728 69.3107 99.2662 69.3107C95.8043 69.3107 92.9445 66.4541 92.9445 62.9961C92.9445 62.8457 92.9445 62.6202 93.0198 62.4698H82.7846H77.2907H66.9803C66.9803 62.6202 67.0555 62.7705 67.0555 62.9961C67.0555 66.4541 64.1957 69.3107 60.7338 69.3107C57.2719 69.3107 54.4121 66.4541 54.4121 62.9961C54.4121 61.0415 55.3152 59.2373 56.7451 58.1097C55.3152 56.9821 54.4121 55.1779 54.4121 53.2234C54.4121 49.7654 57.2719 46.9088 60.7338 46.9088C64.1957 46.9088 67.0555 49.7654 67.0555 53.2234C67.0555 53.6744 66.9803 54.2007 66.905 54.6517H77.2907H82.7846H93.1703C93.0198 54.2007 92.9445 53.7496 92.9445 53.2234Z" fill="#CAE4DB"/>
    </svg>
    