<svg width="144" height="165" viewBox="0 0 144 165" fill="none" xmlns="http://www.w3.org/2000/svg">
<path fill-rule="evenodd" clip-rule="evenodd" d="M71.5825 0L0 41.2332V50.852L8.28283 46.0762L71.5825 9.55157L134.882 46.0762V46.1435L143.165 50.9193V41.2332L71.5825 0Z" fill="#CAE4DB"/>
<path fill-rule="evenodd" clip-rule="evenodd" d="M134.882 118.991L117.104 129.215C115.892 128.879 114.748 128.543 113.535 128.206C112.323 128.273 111.246 127.87 110.303 127.063C107.744 125.986 105.051 125.247 102.626 123.767C101.751 123.632 100.943 123.43 100.404 122.758C99.9328 122.623 99.5961 122.354 99.192 122.22C97.9126 121.883 96.9025 121.278 96.0944 120.269C95.623 119.933 95.0843 119.664 94.6802 119.327C94.0742 118.991 93.7375 118.655 93.6028 117.915C93.4008 116.973 93.1314 116.099 92.862 115.224C92.5253 114.35 92.5254 113.341 92.3233 112.399C92.1887 111.861 92.054 111.39 91.5152 111.256C90.9765 110.986 90.4378 111.256 89.8991 111.323C88.8216 111.525 88.2156 111.188 88.0809 110.112C87.9462 109.305 87.7442 108.498 87.6768 107.691C87.6095 105.874 87.3401 103.991 89.0237 102.646C91.0439 98.5426 92.5253 94.3049 93.7375 89.8654C94.0068 88.8565 94.4782 88.0493 95.7577 87.982C96.5658 87.982 97.1718 87.3766 97.4412 86.5695C98.2493 84.0134 98.9227 81.3901 100.135 78.9686C100.471 77.2197 101.347 75.5381 101.482 73.7219C101.482 73.3856 101.549 72.982 101.549 72.6457C101.482 72.5112 101.414 72.3766 101.347 72.2421C101.28 72.1748 101.212 72.1748 101.145 72.1076C101.212 71.3004 101.212 70.5605 101.212 69.7533C101.145 68.6771 100.674 67.7354 99.5961 67.4663C98.586 67.1973 98.4513 66.6591 98.4513 65.7847C98.6533 62.3542 98.8553 58.8565 99.0574 55.3587C99.1247 55.2242 99.0573 55.1569 98.99 55.0224C99.0573 54.9551 99.0573 54.8878 98.99 54.8206C98.8553 53.7444 98.788 52.7354 98.6533 51.6591C98.3839 49.1704 98.1146 46.6143 96.7678 44.3946C94.2088 40.0896 90.7072 36.7937 86.2627 34.5739C82.4917 32.6905 78.4513 31.6816 74.3435 30.8744C65.7913 29.1928 58.2492 31.0762 51.5826 36.7264C51.5826 36.7937 51.6499 36.8609 51.6499 36.9282C50.9091 37.3991 50.3031 38.0717 49.8991 38.8116C49.091 40.2914 47.9462 41.5022 46.7341 42.6457C44.5118 44.7309 43.2997 47.0852 43.7038 50.1793C43.6364 50.2466 43.5691 50.2466 43.4344 50.3139C43.2997 50.4484 43.2324 50.5829 43.1651 50.7174C42.6263 53.2062 43.2997 55.6278 43.2997 58.1165C43.9058 60.2017 43.9058 62.3542 44.1078 64.5067C44.1752 65.6502 43.9058 66.4574 42.761 66.8609C41.3469 67.3991 40.7408 68.5426 40.5388 69.9551C40.3368 71.4349 40.2694 72.8475 40.6735 74.3273C41.2122 76.3452 41.8183 78.3632 42.4917 80.3811C43.5018 82.0627 44.1752 83.9461 44.5119 85.8968C44.7812 87.1748 45.3199 87.9148 46.3974 88.3183C47.3401 88.6547 47.8115 89.26 48.0135 90.2018C48.3502 91.6816 48.889 93.0941 49.3603 94.5067C49.8991 95.6502 50.7745 96.7264 50.7745 98.0717C50.7745 98.2062 50.8418 98.3408 50.9092 98.4753C53.4008 102.444 54.7475 106.682 53.1314 111.39C52.256 112.332 51.4479 111.323 50.5725 111.323C49.697 111.323 49.0236 111.256 48.8216 112.265C48.1482 114.282 47.8115 116.435 47.2055 118.453C46.8688 119.596 46.2627 120.404 45.2526 120.942C42.8957 122.085 40.5388 123.161 38.0472 123.901C36.3637 125.112 34.3435 125.448 32.458 126.121C29.899 127.063 27.2728 127.735 24.5792 128.408L8.35021 119.058V53.6771L0.0673828 58.4529V123.767L71.6499 165L143.165 123.767V58.5201L134.882 53.7444V118.991Z" fill="#CAE4DB"/>
</svg>
