<svg width="120" height="26" viewBox="0 0 120 26" fill="none" xmlns="http://www.w3.org/2000/svg">
    <g clip-path="url(#clip0)">
    <path d="M14.1067 3.6824C14.1067 3.14306 14.0882 2.7711 14.0325 2.52933C13.9768 2.28755 13.8469 2.04578 13.6427 1.76681C13.2715 1.30186 12.3619 1.04149 10.9142 0.985692C10.9698 1.74821 11.007 2.34335 11.007 2.7711C11.007 4.35193 10.8585 6.41631 10.5429 8.90844C8.79814 8.94563 6.71926 8.94563 4.30626 8.94563C4.34339 8.68526 4.45476 7.86695 4.65893 6.5093C4.86311 5.15164 4.95592 4.20315 4.95592 3.6638C4.95592 3.12446 4.93735 2.7525 4.88167 2.51073C4.82599 2.26895 4.71462 2.02718 4.529 1.74821C4.15777 1.28326 3.2297 1.02289 1.7819 0.967094C1.83759 1.72961 1.87471 2.32475 1.87471 2.7525C1.87471 4.38913 1.72622 6.4907 1.41067 9.09442C0.464037 9.35479 0 9.98712 0 10.9914C0 11.1588 0.0185615 11.4006 0.037123 11.7167C0.296984 11.6051 0.649652 11.475 1.07657 11.3634C1.07657 11.382 1.07657 11.4192 1.058 11.475C0.761021 13.7439 0.612529 15.1388 0.612529 15.6967C0.612529 16.6452 0.835267 17.3891 1.28074 17.9099C1.72622 18.4492 2.58005 18.877 3.8051 19.1931C3.60093 18.7096 3.50812 17.8541 3.50812 16.608C3.50812 15.3619 3.67517 13.5021 4.00928 10.9914C5.04872 10.9542 5.92111 10.917 6.66357 10.917L8.76102 10.9356C9.46636 10.9356 9.98608 10.8054 10.3016 10.5265L10.1717 11.475C9.87471 13.6137 9.72622 15.1016 9.72622 15.9199C9.72622 16.7382 9.94896 17.4077 10.3944 17.9285C10.8399 18.4492 11.6752 18.877 12.9188 19.1931C12.7146 18.7096 12.6218 17.8169 12.6218 16.4964C12.6218 15.176 12.8631 12.8512 13.3457 9.50357C13.8469 6.15593 14.1067 4.22174 14.1067 3.6824Z" fill="#CAE4DB" fill-opacity="0.6"/>
    <path d="M22.1436 5.96996C21.2712 5.96996 20.3803 6.24893 19.4522 6.82547C18.9696 7.12304 18.5056 7.58798 18.0601 8.18312C17.6146 8.77826 17.2434 9.48498 16.9278 10.3033C17.2248 8.48069 18.0972 7.06724 19.5636 6.04435C19.5636 5.95136 19.4893 5.83977 19.3594 5.74678C19.2295 5.65379 19.081 5.598 18.9139 5.598C17.429 5.96996 16.2411 6.84407 15.3316 8.25751C14.422 9.67096 13.9766 11.289 13.9766 13.1302C13.9766 14.9714 14.4406 16.3848 15.3872 17.3705C16.3339 18.3562 17.429 18.8398 18.6912 18.8398C19.6007 18.8398 20.4174 18.6724 21.1784 18.3376C22.5148 17.7611 23.5543 16.701 24.2782 15.176C24.9278 13.8183 25.2619 12.3305 25.2619 10.7124C25.2619 9.2618 24.965 8.10873 24.3524 7.25322C23.7585 6.39771 23.016 5.96996 22.1436 5.96996ZM21.5868 15.3619C20.9742 16.6452 20.1761 17.2775 19.2109 17.2775C17.8374 17.2775 17.1506 15.9571 17.1506 13.2976C17.1506 12.0329 17.5218 10.7496 18.2643 9.48498C19.0067 8.20172 19.842 7.56939 20.7886 7.56939C21.9209 7.56939 22.4963 8.74106 22.4963 11.0658C22.4963 12.6466 22.1993 14.0787 21.5868 15.3619Z" fill="#CAE4DB" fill-opacity="0.6"/>
    <path d="M35.8235 17.9471C35.6379 17.6123 35.5451 17.0544 35.5451 16.3104C35.5451 15.5665 35.6936 14.3576 35.972 12.721C36.2504 11.0658 36.3989 9.80114 36.3989 8.88984C36.3989 7.97853 36.2133 7.25321 35.8421 6.73247C35.4708 6.19313 34.8583 5.93275 34.0045 5.93275C33.1507 5.93275 32.204 6.50929 31.1646 7.64377C30.1251 8.77825 29.3827 10.1731 28.9001 11.7911C29.0671 10.7496 29.1599 9.81974 29.1599 9.02002C29.1599 8.22031 28.9558 7.51358 28.5289 6.89985C28.1019 6.28612 27.3595 5.80257 26.3015 5.4678C26.5428 6.4535 26.6727 7.51358 26.6727 8.66666C26.6727 9.81974 26.5242 11.382 26.2087 13.3348C25.9117 15.2875 25.7446 16.4034 25.7446 16.701C25.7446 17.3705 25.9302 17.8541 26.2829 18.1516C26.6541 18.4492 27.2481 18.598 28.0648 18.598C28.2133 18.598 28.5103 18.5794 28.9743 18.5608C28.8815 18.0587 28.8444 17.2589 28.8444 16.2174C28.8444 15.1574 28.9743 14.0973 29.2342 13.0372C29.494 11.9771 29.8282 11.103 30.2179 10.4149C30.6077 9.74534 31.0161 9.206 31.443 8.81544C31.8699 8.42489 32.2411 8.22031 32.5753 8.22031C33.1507 8.22031 33.4476 8.70386 33.4476 9.67095C33.4476 10.4521 33.2992 11.6051 33.0022 13.186C32.7052 14.7482 32.5567 15.8083 32.5567 16.3476C32.5567 17.2961 32.8166 17.9657 33.3363 18.3376C33.856 18.7096 34.7284 18.9142 35.9534 18.9142C36.3061 18.9142 36.566 18.9142 36.7702 18.8956C36.3247 18.5794 36.0091 18.2818 35.8235 17.9471Z" fill="#CAE4DB" fill-opacity="0.6"/>
    <path d="M42.5986 13.1488C43.9721 13.1488 45.1415 12.814 46.1067 12.1445C47.0533 11.475 47.5359 10.4521 47.5359 9.07582C47.5359 8.12732 47.239 7.36481 46.645 6.78827C46.051 6.21173 45.1044 5.91416 43.8422 5.91416C42.5615 5.91416 41.4107 6.30472 40.3527 7.08584C39.3132 7.86695 38.5336 8.81545 38.0696 9.94993C37.587 11.0844 37.3457 12.2747 37.3457 13.5207C37.3457 15.1946 37.8097 16.4964 38.7193 17.4449C39.6288 18.3934 40.7053 18.8584 41.9304 18.8584C43.9536 18.8584 45.6056 17.8727 46.8863 15.9013C46.8863 15.4735 46.6264 15.2132 46.1067 15.083C45.6798 15.7525 45.1972 16.2732 44.6218 16.6638C44.0464 17.0358 43.4524 17.2403 42.8399 17.2403C42.2088 17.2403 41.6705 16.9428 41.225 16.329C40.7796 15.7153 40.5568 14.804 40.5568 13.5951C40.5568 13.2976 40.5568 13.0558 40.5754 12.9256C41.2065 13.0558 41.8933 13.1488 42.5986 13.1488ZM41.6334 8.62947C42.1346 7.71817 42.7656 7.25322 43.5081 7.25322C43.8793 7.25322 44.1763 7.3834 44.3619 7.66237C44.5661 7.94134 44.6589 8.25751 44.6589 8.62947C44.6589 9.54077 44.3619 10.3405 43.7494 10.9914C43.1369 11.6423 42.2088 11.9771 40.9466 11.9771H40.6125C40.7981 10.6752 41.1322 9.55937 41.6334 8.62947Z" fill="#CAE4DB" fill-opacity="0.6"/>
    <path d="M56.6311 5.43062C56.6311 7.12304 55.3318 10.4893 52.7517 15.5107C52.696 15.1388 52.6032 14.3949 52.4919 13.2418C52.3805 12.0887 52.3248 11.4378 52.3248 11.289C52.3248 11.1216 52.232 10.3405 52.0278 8.94564C51.9536 8.51789 51.8422 7.97854 51.6752 7.34621C51.5081 6.69528 51.3039 6.26753 51.0441 6.04435C50.8028 5.82118 50.4315 5.70959 49.9489 5.70959C49.4663 5.70959 48.8353 5.89557 48.0371 6.28613C48.464 6.99285 48.8353 8.05294 49.1694 9.48498C49.5035 10.917 49.819 12.5908 50.1346 14.525C50.4501 16.4592 50.7285 17.8727 50.9513 18.784C49.7819 21.1459 49.2065 22.7268 49.2065 23.5265C49.2065 24.103 49.4107 24.6238 49.8376 25.0515C50.2645 25.4793 51.0626 25.814 52.232 26.0186C52.1392 25.4235 52.0835 24.7911 52.0835 24.1402C52.0835 22.7082 52.3063 21.2575 52.7332 19.7511C53.1786 18.2632 53.6984 16.9242 54.3295 15.7339C54.9606 14.5436 55.5731 13.4278 56.2042 12.3863C56.8353 11.3448 57.355 10.3777 57.8005 9.50358C58.2459 8.62947 58.4501 7.94135 58.4501 7.4392C58.413 6.69528 57.819 6.04435 56.6311 5.43062Z" fill="#CAE4DB" fill-opacity="0.6"/>
    <path d="M69.1788 2.54792C68.3992 1.71101 67.3412 1.28326 65.9862 1.28326C64.6313 1.28326 63.4062 1.58083 62.2925 2.19456C61.8285 1.15307 60.8447 0.557938 59.3598 0.44635C59.564 0.892702 59.6568 1.8598 59.6568 3.34764C59.6568 4.83548 59.4155 7.29041 58.9329 10.7682C58.4503 14.2275 58.209 16.3104 58.209 16.9986C58.209 17.6867 58.3946 18.1702 58.7473 18.4678C59.1185 18.7654 59.7125 18.9142 60.5292 18.9142C60.6777 18.9142 60.9746 18.8956 61.4387 18.877C61.3459 18.3748 61.3088 17.6495 61.3088 16.7382C61.3088 14.6738 61.5129 12.1259 61.9398 9.05722C62.3482 5.98855 62.5709 4.18455 62.5709 3.62661V3.53362C63.7774 3.03147 64.8726 2.95708 65.8378 3.31044C66.9886 3.75679 67.564 4.68669 67.564 6.11874C67.564 7.08584 67.2299 7.99714 66.5617 8.87124C65.5779 10.0987 64.2786 10.7124 62.6266 10.7124C62.5709 10.7124 62.5152 10.7124 62.4596 10.7124L62.5338 11.6237C62.9236 11.6795 63.332 11.7167 63.7774 11.7167C64.8169 11.7167 65.7449 11.5308 66.5988 11.1774C67.4526 10.8054 68.1394 10.3405 68.6777 9.76395C69.7914 8.53648 70.3296 7.16023 70.3296 5.65379C70.3482 4.42632 69.9584 3.38483 69.1788 2.54792Z" fill="#CAE4DB" fill-opacity="0.6"/>
    <path d="M74.747 13.1488C76.1206 13.1488 77.29 12.814 78.2552 12.1445C79.2018 11.475 79.6844 10.4521 79.6844 9.07582C79.6844 8.12732 79.3874 7.36481 78.7934 6.78827C78.1995 6.21173 77.2528 5.91416 75.9907 5.91416C74.7099 5.91416 73.5591 6.30472 72.5011 7.08584C71.4617 7.86695 70.6821 8.81545 70.218 9.94993C69.7354 11.0844 69.4941 12.2747 69.4941 13.5207C69.4941 15.1946 69.9582 16.4964 70.8677 17.4449C71.7772 18.3934 72.8538 18.8584 74.0788 18.8584C76.102 18.8584 77.754 17.8727 79.0347 15.9013C79.0347 15.4735 78.7749 15.2132 78.2552 15.083C77.8282 15.7525 77.3457 16.2732 76.7702 16.6638C76.1948 17.0358 75.6009 17.2403 74.9883 17.2403C74.3573 17.2403 73.819 16.9428 73.3735 16.329C72.928 15.7153 72.7053 14.804 72.7053 13.5951C72.7053 13.2976 72.7053 13.0558 72.7238 12.9256C73.3549 13.0558 74.0417 13.1488 74.747 13.1488ZM73.7818 8.62947C74.283 7.71817 74.9141 7.25322 75.6566 7.25322C76.0278 7.25322 76.3248 7.3834 76.5104 7.66237C76.7146 7.94134 76.8074 8.25751 76.8074 8.62947C76.8074 9.54077 76.5104 10.3405 75.8979 10.9914C75.2853 11.6423 74.3572 11.9771 73.0951 11.9771H72.761C72.9466 10.6752 73.2807 9.55937 73.7818 8.62947Z" fill="#CAE4DB" fill-opacity="0.6"/>
    <path d="M85.7725 6.4721C85.8467 5.83977 85.8839 5.35622 85.8839 5.00286C85.8839 4.12875 85.6611 3.45923 85.2342 2.97568C84.7887 2.51073 84.102 2.21316 83.1368 2.12017C83.1368 2.28755 83.1368 2.52933 83.1553 2.84549C83.1553 3.16166 83.1739 3.57081 83.1739 4.05436C83.1739 4.53791 83.1182 5.31903 83.0254 6.41631C82.153 6.43491 81.4848 6.58369 81.0208 6.86266C80.5567 7.14163 80.3154 7.68097 80.3154 8.44349C80.3154 8.61087 80.334 8.85265 80.3525 9.16881C81.2064 8.79685 82.0231 8.53648 82.7841 8.40629C82.6913 9.00143 82.5057 10.1545 82.1901 11.8469C81.8931 13.5393 81.7261 14.8784 81.7261 15.8641C81.7261 16.98 81.9303 17.8355 82.3572 18.4306C82.7841 19.0443 83.5451 19.4907 84.6774 19.7697C84.4732 19.3233 84.3804 18.4306 84.3804 17.1102C84.3804 15.7897 84.6217 13.7439 85.1228 10.9914C85.3641 9.68956 85.5126 8.77825 85.5869 8.25751C85.8839 8.27611 86.3293 8.27611 86.9233 8.27611C87.4987 8.27611 87.9256 8.14592 88.1669 7.86695C88.4082 7.60658 88.5381 7.10443 88.5381 6.41631C88.5381 6.26752 88.5196 6.04435 88.501 5.76538C87.8885 6.21173 86.979 6.43491 85.7725 6.4721Z" fill="#CAE4DB" fill-opacity="0.6"/>
    <path d="M99.6195 0.985696C98.4873 0.985696 97.2622 1.30186 95.9815 1.93419C95.5917 1.06009 94.6079 0.409158 93.0488 0.0186005C93.2529 0.502148 93.3457 1.32046 93.3457 2.47354C93.3457 5.95136 93.0302 9.83834 92.3805 14.1345C92.0836 16.1989 91.9165 17.2775 91.8979 17.3891L92.529 17.7611C92.9374 18.0029 93.587 18.2632 94.4966 18.505C95.4061 18.7468 96.3898 18.877 97.4849 18.877C98.5615 18.877 99.5824 18.691 100.566 18.3376C102.348 17.6681 103.74 16.4592 104.742 14.7296C105.633 13.1674 106.079 11.4006 106.079 9.39199C106.079 6.99285 105.504 4.98426 104.353 3.40344C103.202 1.78541 101.624 0.985696 99.6195 0.985696ZM102.292 12.9814C101.884 14.1531 101.216 15.1574 100.288 15.9757C99.3597 16.794 98.2645 17.2031 97.0023 17.2031C96.297 17.2031 95.6659 17.0916 95.1091 16.8684C95.1091 15.8641 95.2947 13.5579 95.6845 9.98713C96.0743 6.39771 96.2599 4.16595 96.2599 3.27325C96.891 3.01288 97.6334 2.88269 98.4873 2.88269C99.8422 2.88269 100.919 3.47783 101.717 4.6495C102.515 5.82117 102.923 7.34621 102.923 9.22461C102.905 10.5637 102.701 11.8097 102.292 12.9814Z" fill="#CAE4DB" fill-opacity="0.6"/>
    <path d="M118.515 14.0415C117.81 14.9342 117.086 15.6223 116.306 16.1059C115.527 16.5894 114.784 16.8312 114.079 16.8312C112.947 16.8312 112.019 16.3476 111.276 15.3805C110.552 14.4134 110.181 13 110.181 11.1402C110.181 9.76395 110.367 8.4063 110.756 7.12304C111.128 5.82118 111.703 4.72389 112.483 3.84979C113.262 2.95709 114.116 2.51073 115.081 2.51073C115.712 2.51073 116.158 2.71531 116.455 3.10587C116.752 3.49643 116.9 4.01717 116.9 4.6309C116.9 5.26324 116.789 5.91417 116.548 6.62089C116.306 7.32761 116.046 7.86696 115.731 8.23892C116.158 8.3505 116.529 8.4063 116.845 8.4063C117.773 8.4063 118.534 8.07153 119.109 7.40201C119.684 6.73248 119.981 5.87697 119.981 4.81688C119.981 3.7568 119.592 2.8455 118.831 2.06438C118.07 1.28327 116.956 0.892708 115.49 0.892708C114.023 0.892708 112.742 1.17168 111.629 1.72962C110.515 2.28756 109.606 3.05008 108.882 3.99857C107.471 5.96996 106.747 8.3505 106.747 11.1588C106.747 13.6695 107.322 15.5851 108.492 16.887C109.661 18.2074 111.09 18.8584 112.817 18.8584C113.578 18.8584 114.302 18.7654 115.025 18.5608C115.731 18.3562 116.492 17.9471 117.29 17.3147C118.088 16.6824 118.775 15.8641 119.313 14.8598C119.313 14.432 119.053 14.1531 118.515 14.0415Z" fill="#CAE4DB" fill-opacity="0.6"/>
    </g>
    <defs>
    <clipPath id="clip0">
    <rect width="120" height="26" fill="white"/>
    </clipPath>
    </defs>
    </svg>
    