<svg width="712" height="204" viewBox="0 0 712 204" fill="none" xmlns="http://www.w3.org/2000/svg">
<g clip-path="url(#clip0)">
<path d="M10.2638 56.9162L88.2345 11.8323L166.291 56.9162V57.0025L176.555 62.9619V51.0432L88.2345 0L0 51.0432V62.8755L10.2638 56.9162Z" fill="#7A9D96"/>
<path d="M219.939 79.5445C219.939 77.0398 219.853 75.3124 219.594 74.1897C219.336 73.0669 218.732 71.9441 217.783 70.6486C216.058 68.4894 211.832 67.2803 205.104 67.0212C205.363 70.5622 205.536 73.326 205.536 75.3124C205.536 82.6537 204.846 92.2405 203.379 103.814C195.272 103.986 185.612 103.986 174.399 103.986C174.572 102.777 175.089 98.9771 176.038 92.6723C176.987 86.3675 177.418 81.9627 177.418 79.4581C177.418 76.9534 177.332 75.2261 177.073 74.1033C176.814 72.9805 176.297 71.8577 175.434 70.5622C173.709 68.403 169.396 67.1939 162.669 66.9348C162.928 70.4759 163.1 73.2396 163.1 75.2261C163.1 82.8264 162.41 92.5859 160.944 104.677C156.631 105.8 154.475 108.65 154.475 113.401C154.475 114.178 154.561 115.301 154.648 116.769C155.855 116.251 157.494 115.646 159.478 115.128C159.478 115.214 159.478 115.387 159.391 115.646C158.011 126.183 157.235 132.66 157.235 135.251C157.235 139.656 158.27 143.111 160.34 145.529C162.41 148.034 166.378 150.02 172.07 151.489C171.121 149.243 170.69 145.27 170.69 139.483C170.69 133.697 171.466 125.06 173.019 113.401C177.849 113.228 181.903 113.055 185.353 113.055L195.099 113.141C198.377 113.141 200.792 112.537 202.258 111.241L201.654 115.646C200.274 125.578 199.584 132.488 199.584 136.288C199.584 140.088 200.619 143.197 202.689 145.616C204.759 148.034 208.641 150.02 214.419 151.489C213.471 149.243 213.039 145.097 213.039 138.965C213.039 132.833 214.161 122.037 216.403 106.491C218.818 91.0313 219.939 82.0491 219.939 79.5445Z" fill="#7A9D96"/>
<path d="M257.372 90.1677C253.318 90.1677 249.178 91.4632 244.866 94.1406C242.623 95.5224 240.467 97.6816 238.397 100.445C236.327 103.209 234.602 106.491 233.136 110.291C234.516 101.827 238.57 95.2633 245.383 90.5131C245.383 90.0813 245.038 89.5631 244.435 89.1312C243.831 88.6994 243.141 88.4403 242.365 88.4403C235.465 90.1677 229.944 94.2269 225.718 100.791C221.492 107.355 219.422 114.869 219.422 123.419C219.422 131.97 221.578 138.533 225.977 143.111C230.376 147.688 235.465 149.934 241.33 149.934C245.556 149.934 249.351 149.157 252.887 147.602C259.097 144.925 263.927 140.002 267.291 132.92C270.31 126.615 271.862 119.705 271.862 112.191C271.862 105.455 270.482 100.1 267.636 96.127C264.876 92.1541 261.426 90.1677 257.372 90.1677ZM254.698 133.783C251.852 139.743 248.143 142.679 243.658 142.679C237.276 142.679 234.084 136.547 234.084 124.196C234.084 118.323 235.81 112.364 239.26 106.491C242.71 100.532 246.591 97.5953 250.99 97.5953C256.251 97.5953 258.925 103.036 258.925 113.832C259.011 121.26 257.545 127.91 254.698 133.783Z" fill="#7A9D96"/>
<path d="M320.939 145.788C320.077 144.234 319.645 141.643 319.645 138.188C319.645 134.733 320.335 129.119 321.629 121.519C322.923 113.832 323.613 107.959 323.613 103.727C323.613 99.4953 322.75 96.127 321.025 93.7087C319.3 91.2041 316.454 89.9949 312.487 89.9949C308.519 89.9949 304.12 92.6723 299.29 97.9407C294.46 103.209 291.01 109.687 288.768 117.201C289.544 112.364 289.975 108.046 289.975 104.332C289.975 100.618 289.026 97.3362 287.043 94.486C285.059 91.6359 281.609 89.3903 276.693 87.8357C277.814 92.4132 278.418 97.3362 278.418 102.691C278.418 108.046 277.728 115.301 276.261 124.369C274.881 133.438 274.105 138.62 274.105 140.002C274.105 143.111 274.968 145.356 276.606 146.738C278.331 148.12 281.091 148.811 284.886 148.811C285.576 148.811 286.956 148.725 289.113 148.638C288.681 146.307 288.509 142.593 288.509 137.756C288.509 132.833 289.113 127.91 290.32 122.987C291.528 118.064 293.08 114.005 294.891 110.809C296.703 107.7 298.6 105.196 300.584 103.382C302.568 101.568 304.293 100.618 305.845 100.618C308.519 100.618 309.899 102.864 309.899 107.355C309.899 110.982 309.209 116.337 307.829 123.678C306.449 130.933 305.759 135.856 305.759 138.361C305.759 142.765 306.967 145.875 309.382 147.602C311.797 149.329 315.85 150.279 321.543 150.279C323.182 150.279 324.389 150.279 325.338 150.193C323.268 148.725 321.802 147.429 320.939 145.788Z" fill="#7A9D96"/>
<path d="M352.334 123.506C358.717 123.506 364.151 121.951 368.636 118.842C373.035 115.732 375.277 110.982 375.277 104.591C375.277 100.186 373.897 96.6452 371.137 93.9678C368.377 91.2904 363.978 89.9086 358.113 89.9086C352.162 89.9086 346.814 91.7223 341.898 95.3497C337.068 98.9771 333.445 103.382 331.289 108.65C329.047 113.919 327.925 119.446 327.925 125.233C327.925 133.006 330.082 139.052 334.308 143.456C338.534 147.861 343.537 150.02 349.229 150.02C358.631 150.02 366.307 145.443 372.258 136.288C372.258 134.301 371.051 133.092 368.636 132.488C366.652 135.597 364.409 138.015 361.736 139.829C359.062 141.556 356.302 142.506 353.456 142.506C350.523 142.506 348.022 141.124 345.952 138.274C343.882 135.424 342.847 131.192 342.847 125.578C342.847 124.196 342.847 123.074 342.933 122.469C345.952 123.16 349.143 123.506 352.334 123.506ZM347.936 102.605C350.264 98.3726 353.197 96.2134 356.647 96.2134C358.372 96.2134 359.752 96.818 360.614 98.1135C361.563 99.409 361.994 100.877 361.994 102.605C361.994 106.837 360.614 110.55 357.768 113.573C354.922 116.596 350.609 118.151 344.744 118.151H343.278C343.968 112.019 345.521 106.837 347.936 102.605Z" fill="#7A9D96"/>
<path d="M417.54 87.663C417.54 95.5224 411.502 111.155 399.514 134.474C399.255 132.747 398.824 129.292 398.306 123.937C397.789 118.583 397.53 115.56 397.53 114.869C397.53 114.091 397.098 110.464 396.15 103.986C395.805 102 395.287 99.4953 394.511 96.5589C393.735 93.536 392.786 91.5495 391.578 90.5131C390.457 89.4767 388.732 88.9585 386.49 88.9585C384.247 88.9585 381.315 89.8222 377.606 91.6359C379.59 94.9179 381.315 99.8408 382.867 106.491C384.42 113.141 385.886 120.914 387.352 129.897C388.818 138.879 390.112 145.443 391.147 149.675C385.713 160.644 383.04 167.985 383.04 171.699C383.04 174.376 383.988 176.794 385.972 178.781C387.956 180.767 391.665 182.322 397.099 183.272C396.667 180.508 396.409 177.572 396.409 174.549C396.409 167.898 397.444 161.162 399.427 154.166C401.497 147.257 403.912 141.038 406.845 135.511C409.777 129.983 412.624 124.801 415.556 119.964C418.489 115.128 420.904 110.637 422.974 106.577C425.044 102.518 425.992 99.3226 425.992 96.9907C425.906 93.6224 423.146 90.5131 417.54 87.663Z" fill="#7A9D96"/>
<path d="M475.932 74.276C472.309 70.3895 467.393 68.403 461.097 68.403C454.8 68.403 449.108 69.7849 443.933 72.6351C441.776 67.7985 437.205 65.0347 430.305 64.5165C431.254 66.5893 431.685 71.0804 431.685 77.9898C431.685 84.8992 430.564 96.2997 428.321 112.45C426.079 128.515 424.958 138.188 424.958 141.384C424.958 144.579 425.82 146.825 427.459 148.207C429.184 149.589 431.944 150.279 435.739 150.279C436.429 150.279 437.809 150.193 439.965 150.107C439.534 147.775 439.361 144.406 439.361 140.174C439.361 130.588 440.31 118.755 442.294 104.505C444.191 90.254 445.226 81.8764 445.226 79.2854V79.1126C450.833 76.7807 455.922 76.4352 460.407 78.0762C465.754 80.149 468.428 84.4674 468.428 91.1177C468.428 95.6088 466.875 99.8408 463.77 103.9C459.199 109.6 453.162 112.45 445.485 112.45C445.226 112.45 444.968 112.45 444.709 112.45L445.054 116.682C446.865 116.942 448.763 117.114 450.833 117.114C455.663 117.114 459.975 116.251 463.943 114.61C467.91 112.882 471.102 110.723 473.603 108.046C478.778 102.345 481.279 95.9543 481.279 88.9585C481.366 82.9992 479.554 78.1626 475.932 74.276Z" fill="#7A9D96"/>
<path d="M501.721 123.506C508.103 123.506 513.537 121.951 518.022 118.842C522.421 115.732 524.663 110.982 524.663 104.591C524.663 100.186 523.283 96.6452 520.523 93.9678C517.763 91.2904 513.365 89.9086 507.5 89.9086C501.548 89.9086 496.201 91.7223 491.284 95.3497C486.454 98.9771 482.832 103.382 480.676 108.65C478.433 113.919 477.312 119.446 477.312 125.233C477.312 133.006 479.468 139.052 483.694 143.456C487.921 147.861 492.923 150.02 498.616 150.02C508.017 150.02 515.693 145.443 521.645 136.288C521.645 134.301 520.437 133.092 518.022 132.488C516.038 135.597 513.796 138.015 511.122 139.829C508.448 141.556 505.688 142.506 502.842 142.506C499.909 142.506 497.408 141.124 495.338 138.274C493.268 135.424 492.233 131.192 492.233 125.578C492.233 124.196 492.233 123.074 492.319 122.469C495.338 123.16 498.529 123.506 501.721 123.506ZM497.322 102.605C499.651 98.3726 502.583 96.2134 506.033 96.2134C507.758 96.2134 509.138 96.818 510.001 98.1135C510.95 99.409 511.381 100.877 511.381 102.605C511.381 106.837 510.001 110.55 507.155 113.573C504.308 116.596 499.996 118.151 494.131 118.151H492.578C493.354 112.019 494.907 106.837 497.322 102.605Z" fill="#7A9D96"/>
<path d="M552.954 92.4996C553.299 89.5631 553.471 87.3175 553.471 85.6765C553.471 81.6173 552.436 78.508 550.452 76.2625C548.382 74.1033 545.191 72.7214 540.706 72.2896C540.706 73.0669 540.706 74.1897 540.792 75.6579C540.792 77.1262 540.879 79.0262 540.879 81.2718C540.879 83.5174 540.62 87.1448 540.189 92.2405C536.135 92.3268 533.03 93.0178 530.873 94.3133C528.717 95.6088 527.596 98.1135 527.596 101.655C527.596 102.432 527.682 103.555 527.768 105.023C531.736 103.296 535.531 102.086 539.067 101.482C538.636 104.246 537.774 109.6 536.307 117.46C534.927 125.319 534.151 131.538 534.151 136.115C534.151 141.297 535.1 145.27 537.084 148.034C539.067 150.884 542.604 152.957 547.865 154.252C546.916 152.18 546.485 148.034 546.485 141.902C546.485 135.77 547.606 126.269 549.935 113.487C551.056 107.441 551.746 103.209 552.091 100.791C553.471 100.877 555.541 100.877 558.301 100.877C560.975 100.877 562.959 100.273 564.08 98.9771C565.201 97.768 565.805 95.4361 565.805 92.2405C565.805 91.5495 565.719 90.5131 565.633 89.2176C562.786 91.2904 558.646 92.4132 552.954 92.4996Z" fill="#7A9D96"/>
<path d="M617.297 67.0212C612.035 67.0212 606.343 68.4894 600.391 71.4259C598.58 67.3666 594.009 64.3438 586.764 62.5301C587.713 64.7756 588.144 68.5758 588.144 73.9306C588.144 90.0813 586.678 108.132 583.659 128.083C582.279 137.67 581.503 142.679 581.416 143.197L584.349 144.925C586.246 146.047 589.265 147.257 593.491 148.379C597.718 149.502 602.289 150.107 607.378 150.107C612.38 150.107 617.124 149.243 621.695 147.602C629.975 144.493 636.444 138.879 641.102 130.847C645.242 123.592 647.312 115.387 647.312 106.059C647.312 94.9179 644.638 85.5902 639.291 78.2489C633.943 70.735 626.612 67.0212 617.297 67.0212ZM629.717 122.815C627.819 128.256 624.714 132.92 620.402 136.72C616.089 140.52 611 142.42 605.135 142.42C601.858 142.42 598.925 141.902 596.338 140.865C596.338 136.202 597.2 125.492 599.011 108.909C600.823 92.2405 601.685 81.8764 601.685 77.7307C604.618 76.5216 608.068 75.917 612.035 75.917C618.332 75.917 623.334 78.6808 627.043 84.1219C630.752 89.5631 632.649 96.6452 632.649 105.368C632.649 111.5 631.614 117.287 629.717 122.815Z" fill="#7A9D96"/>
<path d="M705.1 127.651C701.822 131.797 698.459 134.992 694.836 137.238C691.214 139.483 687.764 140.606 684.486 140.606C679.225 140.606 674.912 138.361 671.462 133.87C668.098 129.378 666.373 122.815 666.373 114.178C666.373 107.787 667.236 101.482 669.047 95.5224C670.772 89.4767 673.446 84.381 677.068 80.3218C680.691 76.1761 684.658 74.1033 689.144 74.1033C692.076 74.1033 694.146 75.0533 695.526 76.8671C696.906 78.6808 697.596 81.0991 697.596 83.9492C697.596 86.8857 697.079 89.9086 695.957 93.1905C694.836 96.4725 693.629 98.9771 692.162 100.704C694.146 101.223 695.871 101.482 697.337 101.482C701.65 101.482 705.186 99.9272 707.86 96.8179C710.534 93.7087 711.914 89.7358 711.914 84.8129C711.914 79.8899 710.102 75.6579 706.566 72.0305C703.03 68.403 697.855 66.5893 691.041 66.5893C684.227 66.5893 678.276 67.8848 673.101 70.4759C667.926 73.0669 663.7 76.608 660.336 81.0127C653.608 90.1677 650.331 101.223 650.331 114.178C650.331 125.837 653.004 134.733 658.438 140.779C663.872 146.911 670.513 149.934 678.535 149.934C682.071 149.934 685.435 149.502 688.799 148.552C692.076 147.602 695.612 145.702 699.321 142.765C703.03 139.829 706.221 136.029 708.722 131.365C708.895 129.465 707.601 128.169 705.1 127.651Z" fill="#7A9D96"/>
<path d="M99.2746 185.863C98.9296 183.531 98.5846 181.199 98.1534 178.867C97.7221 174.894 98.0671 174.635 103.846 171.958C104.45 171.699 104.967 171.353 105.571 171.18C110.056 169.28 114.627 167.38 119.112 165.566C121.786 164.53 123.942 162.975 125.236 160.471C126.444 158.225 127.565 156.066 128.859 153.907C129.721 152.352 129.549 151.057 128.255 149.934C127.651 149.416 127.047 148.898 126.444 148.379C121.959 144.406 117.819 140.261 116.007 134.215C115.576 132.747 114.368 131.365 113.161 130.329C107.727 125.665 101.086 124.456 94.1858 124.283C92.2883 124.283 90.9946 123.678 89.6145 122.469C86.0783 119.187 84.0082 115.214 82.9732 110.55C82.4557 108.132 80.9895 107.528 79.0057 108.996C77.7119 110.032 76.4182 111.328 75.6419 112.796C72.9681 117.805 72.6231 123.333 72.8819 128.774C73.0544 132.488 72.4506 135.079 69.5181 137.843C59.858 146.825 56.2355 158.484 56.408 171.526C56.408 171.958 56.4942 172.217 56.4942 172.562C56.408 172.994 56.408 173.426 56.3217 173.685L50.9742 170.576C51.0604 168.935 51.1467 167.294 51.1467 166.603C51.578 152.957 55.028 142.938 65.1193 133.438C65.8093 132.833 67.1893 130.933 67.4481 128.86C68.0518 124.024 67.7931 119.878 69.1731 115.301C70.1219 112.019 72.7094 108.305 75.8144 105.455C79.8682 101.827 84.1807 101.914 85.9058 108.218C86.7683 111.241 88.8383 114.005 90.477 116.769C90.8221 117.373 92.4608 118.928 93.1508 119.014C95.0483 119.273 98.7571 119.705 100.913 119.792C100.913 119.446 101 119.101 101 118.842C101.345 116.596 101.69 114.351 102.38 112.191C102.552 112.191 102.552 112.105 102.466 111.932C103.846 107.355 106.088 103.296 110.401 101.309C117.819 97.9407 124.719 92.4996 132.912 90.8586C135.5 90.3404 141.451 80.3218 142.4 77.7307C143.176 75.6579 143.78 73.4987 144.211 71.2532C145.333 64.6892 148.006 62.4437 136.966 60.5436C131.877 59.6799 126.702 58.9026 121.614 57.8662C118.336 57.2616 115.145 56.398 113.075 53.2887C109.797 48.3658 104.795 45.9475 99.4471 44.1338C90.9083 41.2837 82.1107 41.8882 73.4856 42.5792C56.1492 44.1338 43.0391 53.5478 32.4303 66.7621C28.894 71.1668 29.4115 75.4852 33.6378 79.6308C39.5891 85.5902 45.9717 90.945 52.613 96.127C59.6855 101.741 63.3081 100.704 66.8443 92.4132C68.8281 87.7494 69.0869 83.1719 67.7931 78.2489C66.0681 71.5986 64.3431 63.5665 72.5369 58.5572C66.4993 64.862 70.4669 74.1897 72.5369 81.6173C73.2269 84.2083 72.6231 87.4903 71.9331 91.2041C69.5181 103.468 60.6343 107.614 50.3704 100.964C49.9392 100.618 49.1629 100.1 48.6454 99.8408C42.0041 95.3497 42.6079 93.8815 40.0204 101.741C34.069 119.273 25.5302 135.251 14.4039 149.588L10.2638 147.17V66.3302L0 72.2896V153.043L88.2345 204.086L169.483 157.102C165.084 155.98 161.375 154.08 158.529 151.575L99.2746 185.863ZM105.83 138.015C107.296 138.015 108.503 139.57 108.503 141.556C108.503 143.543 107.296 145.097 105.83 145.097C104.363 145.097 103.156 143.543 103.156 141.556C103.156 139.57 104.363 138.015 105.83 138.015ZM92.8058 60.1118C95.3071 56.9162 100.655 55.9661 103.501 62.8755C100.223 60.8027 95.1346 61.2345 90.3908 65.8984C90.4771 64.862 92.1158 61.0618 92.8058 60.1118Z" fill="#7A9D96"/>
</g>
<defs>
<clipPath id="clip0">
<rect width="712" height="204" fill="white"/>
</clipPath>
</defs>
</svg>
